%TF.GenerationSoftware,KiCad,Pcbnew,(after 2015-mar-04 BZR unknown)-product*%
%TF.CreationDate,2015-09-16T22:55:14+02:00*%
%TF.JobID,smoothie_sd,736D6F6F746869655F73642E6B696361,rev?*%
%TF.FileFunction,Copper,L2,Bot,Signal*%
%FSLAX46Y46*%
G04 Gerber Fmt 4.6, Leading zero omitted, Abs format (unit mm)*
G04 Created by KiCad (PCBNEW (after 2015-mar-04 BZR unknown)-product) date 16/09/2015 22:55:14*
%MOMM*%
G01*
G04 APERTURE LIST*
%ADD10C,0.100000*%
%ADD11C,2.000000*%
%ADD12R,1.727200X1.727200*%
%ADD13O,1.727200X1.727200*%
%ADD14C,4.064000*%
%ADD15C,0.600000*%
%ADD16C,0.500000*%
G04 APERTURE END LIST*
D10*
D11*
X140065000Y-107000000D03*
X115935000Y-107000000D03*
D12*
X132080000Y-74930000D03*
D13*
X132080000Y-77470000D03*
X129540000Y-74930000D03*
X129540000Y-77470000D03*
X127000000Y-74930000D03*
X127000000Y-77470000D03*
X124460000Y-74930000D03*
X124460000Y-77470000D03*
D14*
X146000000Y-108000000D03*
X111000000Y-108000000D03*
X146000000Y-75000000D03*
X111000000Y-75000000D03*
D15*
X129057400Y-84683600D03*
X134848600Y-81508600D03*
X122047000Y-80822800D03*
X130733800Y-81356200D03*
D16*
X132080000Y-74930000D02*
X133502400Y-74930000D01*
X135204200Y-84683600D02*
X129057400Y-84683600D01*
X136372600Y-83515200D02*
X135204200Y-84683600D01*
X136372600Y-77800200D02*
X136372600Y-83515200D01*
X133502400Y-74930000D02*
X136372600Y-77800200D01*
X127000000Y-77470000D02*
X127000000Y-78435200D01*
X134848600Y-79908400D02*
X134848600Y-81508600D01*
X134315200Y-79375000D02*
X134848600Y-79908400D01*
X127939800Y-79375000D02*
X134315200Y-79375000D01*
X127000000Y-78435200D02*
X127939800Y-79375000D01*
X127000000Y-74930000D02*
X127000000Y-74142600D01*
X127000000Y-74142600D02*
X126161800Y-73304400D01*
X126161800Y-73304400D02*
X122809000Y-73304400D01*
X122809000Y-73304400D02*
X121453398Y-74660002D01*
X121453398Y-74660002D02*
X121453398Y-80229198D01*
X121453398Y-80229198D02*
X122047000Y-80822800D01*
X123190000Y-74930000D02*
X124460000Y-74930000D01*
X122453400Y-75666600D02*
X123190000Y-74930000D01*
X122453400Y-79451200D02*
X122453400Y-75666600D01*
X123469400Y-80467200D02*
X122453400Y-79451200D01*
X129844800Y-80467200D02*
X123469400Y-80467200D01*
X130733800Y-81356200D02*
X129844800Y-80467200D01*
M02*
