%TF.GenerationSoftware,KiCad,Pcbnew,(after 2015-mar-04 BZR unknown)-product*%
%TF.CreationDate,2015-09-16T22:55:14+02:00*%
%TF.JobID,smoothie_sd,736D6F6F746869655F73642E6B696361,rev?*%
%TF.FileFunction,Copper,L1,Top,Signal*%
%FSLAX46Y46*%
G04 Gerber Fmt 4.6, Leading zero omitted, Abs format (unit mm)*
G04 Created by KiCad (PCBNEW (after 2015-mar-04 BZR unknown)-product) date 16/09/2015 22:55:14*
%MOMM*%
G01*
G04 APERTURE LIST*
%ADD10C,0.100000*%
%ADD11C,2.000000*%
%ADD12R,1.200000X2.200000*%
%ADD13R,1.000000X1.500000*%
%ADD14R,1.727200X1.727200*%
%ADD15O,1.727200X1.727200*%
%ADD16C,4.064000*%
%ADD17C,0.600000*%
%ADD18C,0.500000*%
G04 APERTURE END LIST*
D10*
D11*
X140065000Y-107000000D03*
X115935000Y-107000000D03*
D12*
X142400000Y-103700000D03*
X114400000Y-104900000D03*
D13*
X134875000Y-82700000D03*
X132375000Y-82700000D03*
X129075000Y-82700000D03*
X127375000Y-82700000D03*
X124875000Y-82700000D03*
X122375000Y-82700000D03*
X119950000Y-82700000D03*
X118250000Y-82700000D03*
X137375000Y-82700000D03*
X130725000Y-82700000D03*
X114900000Y-82700000D03*
D14*
X132080000Y-74930000D03*
D15*
X132080000Y-77470000D03*
X129540000Y-74930000D03*
X129540000Y-77470000D03*
X127000000Y-74930000D03*
X127000000Y-77470000D03*
X124460000Y-74930000D03*
X124460000Y-77470000D03*
D16*
X146000000Y-108000000D03*
X111000000Y-108000000D03*
X146000000Y-75000000D03*
X111000000Y-75000000D03*
D17*
X129057400Y-84683600D03*
X134848600Y-81508600D03*
X122047000Y-80822800D03*
X130733800Y-81356200D03*
D18*
X129057400Y-84683600D02*
X141198600Y-84683600D01*
X142400000Y-85885000D02*
X142400000Y-90400000D01*
X141198600Y-84683600D02*
X142400000Y-85885000D01*
X122375000Y-84625000D02*
X117279600Y-84625000D01*
X116000000Y-85904600D02*
X116000000Y-88000000D01*
X117279600Y-84625000D02*
X116000000Y-85904600D01*
X129057400Y-84683600D02*
X122433600Y-84683600D01*
X122433600Y-84683600D02*
X122375000Y-84625000D01*
X129057400Y-84683600D02*
X129075000Y-84683600D01*
X129075000Y-84683600D02*
X129057400Y-84683600D01*
X129057400Y-84683600D02*
X129075000Y-84683600D01*
X142400000Y-103700000D02*
X142400000Y-90400000D01*
X129075000Y-84683600D02*
X129075000Y-82700000D01*
X114400000Y-104900000D02*
X114400000Y-103600000D01*
X116000000Y-102000000D02*
X116000000Y-88000000D01*
X114400000Y-103600000D02*
X116000000Y-102000000D01*
X122375000Y-84625000D02*
X122375000Y-82700000D01*
X134875000Y-81535000D02*
X134875000Y-82700000D01*
X134848600Y-81508600D02*
X134875000Y-81535000D01*
X134620000Y-82445000D02*
X134875000Y-82700000D01*
X129540000Y-74930000D02*
X129540000Y-73583800D01*
X132375000Y-81289800D02*
X132375000Y-82700000D01*
X134162800Y-79502000D02*
X132375000Y-81289800D01*
X134162800Y-73863200D02*
X134162800Y-79502000D01*
X133248400Y-72948800D02*
X134162800Y-73863200D01*
X130175000Y-72948800D02*
X133248400Y-72948800D01*
X129540000Y-73583800D02*
X130175000Y-72948800D01*
X132375000Y-82950000D02*
X132375000Y-82700000D01*
X127375000Y-82700000D02*
X127375000Y-81159000D01*
X132080000Y-78892400D02*
X132080000Y-77470000D01*
X131292600Y-79679800D02*
X132080000Y-78892400D01*
X128854200Y-79679800D02*
X131292600Y-79679800D01*
X127375000Y-81159000D02*
X128854200Y-79679800D01*
X122047000Y-80822800D02*
X124383800Y-80822800D01*
X124383800Y-80822800D02*
X124875000Y-81314000D01*
X124875000Y-81314000D02*
X124875000Y-82700000D01*
X124875000Y-82950000D02*
X124875000Y-82700000D01*
X129540000Y-77470000D02*
X129514600Y-77470000D01*
X129514600Y-77470000D02*
X127304800Y-79679800D01*
X127304800Y-79679800D02*
X120650000Y-79679800D01*
X120650000Y-79679800D02*
X119950000Y-80379800D01*
X119950000Y-80379800D02*
X119950000Y-82700000D01*
X119950000Y-82450000D02*
X119950000Y-82700000D01*
X130725000Y-82700000D02*
X130725000Y-81365000D01*
X130725000Y-81365000D02*
X130733800Y-81356200D01*
M02*
