%TF.GenerationSoftware,KiCad,Pcbnew,(after 2015-mar-04 BZR unknown)-product*%
%TF.CreationDate,2015-09-16T22:55:14+02:00*%
%TF.JobID,smoothie_sd,736D6F6F746869655F73642E6B696361,rev?*%
%TF.FileFunction,Legend,Top*%
%FSLAX46Y46*%
G04 Gerber Fmt 4.6, Leading zero omitted, Abs format (unit mm)*
G04 Created by KiCad (PCBNEW (after 2015-mar-04 BZR unknown)-product) date 16/09/2015 22:55:14*
%MOMM*%
G01*
G04 APERTURE LIST*
%ADD10C,0.100000*%
%ADD11C,0.200000*%
%ADD12C,0.300000*%
%ADD13C,0.150000*%
%ADD14C,2.000000*%
%ADD15R,1.200000X2.200000*%
%ADD16R,1.000000X1.500000*%
%ADD17R,1.727200X1.727200*%
%ADD18O,1.727200X1.727200*%
%ADD19C,4.064000*%
G04 APERTURE END LIST*
D10*
D11*
X109693143Y-82801858D02*
X110893143Y-82801858D01*
X110436000Y-82801858D02*
X110493143Y-82916144D01*
X110493143Y-83144715D01*
X110436000Y-83259001D01*
X110378857Y-83316144D01*
X110264571Y-83373287D01*
X109921714Y-83373287D01*
X109807429Y-83316144D01*
X109750286Y-83259001D01*
X109693143Y-83144715D01*
X109693143Y-82916144D01*
X109750286Y-82801858D01*
X110493143Y-83773287D02*
X109693143Y-84059001D01*
X110493143Y-84344715D02*
X109693143Y-84059001D01*
X109407429Y-83944715D01*
X109350286Y-83887572D01*
X109293143Y-83773287D01*
X109693143Y-86287573D02*
X109693143Y-85716144D01*
X110893143Y-85716144D01*
X109693143Y-87201859D02*
X110321714Y-87201859D01*
X110436000Y-87144716D01*
X110493143Y-87030430D01*
X110493143Y-86801859D01*
X110436000Y-86687573D01*
X109750286Y-87201859D02*
X109693143Y-87087573D01*
X109693143Y-86801859D01*
X109750286Y-86687573D01*
X109864571Y-86630430D01*
X109978857Y-86630430D01*
X110093143Y-86687573D01*
X110150286Y-86801859D01*
X110150286Y-87087573D01*
X110207429Y-87201859D01*
X110493143Y-88287573D02*
X109693143Y-88287573D01*
X110493143Y-87773287D02*
X109864571Y-87773287D01*
X109750286Y-87830430D01*
X109693143Y-87944716D01*
X109693143Y-88116144D01*
X109750286Y-88230430D01*
X109807429Y-88287573D01*
X109693143Y-88859001D02*
X110493143Y-88859001D01*
X110264571Y-88859001D02*
X110378857Y-88916144D01*
X110436000Y-88973287D01*
X110493143Y-89087573D01*
X110493143Y-89201858D01*
X109750286Y-90059001D02*
X109693143Y-89944715D01*
X109693143Y-89716144D01*
X109750286Y-89601858D01*
X109864571Y-89544715D01*
X110321714Y-89544715D01*
X110436000Y-89601858D01*
X110493143Y-89716144D01*
X110493143Y-89944715D01*
X110436000Y-90059001D01*
X110321714Y-90116144D01*
X110207429Y-90116144D01*
X110093143Y-89544715D01*
X110493143Y-90630429D02*
X109693143Y-90630429D01*
X110378857Y-90630429D02*
X110436000Y-90687572D01*
X110493143Y-90801858D01*
X110493143Y-90973286D01*
X110436000Y-91087572D01*
X110321714Y-91144715D01*
X109693143Y-91144715D01*
X110493143Y-91544715D02*
X110493143Y-92001858D01*
X110893143Y-91716143D02*
X109864571Y-91716143D01*
X109750286Y-91773286D01*
X109693143Y-91887572D01*
X109693143Y-92001858D01*
X109693143Y-93887572D02*
X109693143Y-93316143D01*
X110893143Y-93316143D01*
X109750286Y-94744715D02*
X109693143Y-94630429D01*
X109693143Y-94401858D01*
X109750286Y-94287572D01*
X109864571Y-94230429D01*
X110321714Y-94230429D01*
X110436000Y-94287572D01*
X110493143Y-94401858D01*
X110493143Y-94630429D01*
X110436000Y-94744715D01*
X110321714Y-94801858D01*
X110207429Y-94801858D01*
X110093143Y-94230429D01*
X110836000Y-96859001D02*
X110893143Y-96744715D01*
X110893143Y-96573286D01*
X110836000Y-96401858D01*
X110721714Y-96287572D01*
X110607429Y-96230429D01*
X110378857Y-96173286D01*
X110207429Y-96173286D01*
X109978857Y-96230429D01*
X109864571Y-96287572D01*
X109750286Y-96401858D01*
X109693143Y-96573286D01*
X109693143Y-96687572D01*
X109750286Y-96859001D01*
X109807429Y-96916144D01*
X110207429Y-96916144D01*
X110207429Y-96687572D01*
X109693143Y-97601858D02*
X109750286Y-97487572D01*
X109807429Y-97430429D01*
X109921714Y-97373286D01*
X110264571Y-97373286D01*
X110378857Y-97430429D01*
X110436000Y-97487572D01*
X110493143Y-97601858D01*
X110493143Y-97773286D01*
X110436000Y-97887572D01*
X110378857Y-97944715D01*
X110264571Y-98001858D01*
X109921714Y-98001858D01*
X109807429Y-97944715D01*
X109750286Y-97887572D01*
X109693143Y-97773286D01*
X109693143Y-97601858D01*
X110493143Y-98344715D02*
X110493143Y-98801858D01*
X109693143Y-98516143D02*
X110721714Y-98516143D01*
X110836000Y-98573286D01*
X110893143Y-98687572D01*
X110893143Y-98801858D01*
X110493143Y-99030429D02*
X110493143Y-99487572D01*
X109693143Y-99201857D02*
X110721714Y-99201857D01*
X110836000Y-99259000D01*
X110893143Y-99373286D01*
X110893143Y-99487572D01*
D12*
X113856001Y-72663857D02*
X114356001Y-72663857D01*
X114570287Y-73449571D02*
X113856001Y-73449571D01*
X113856001Y-71949571D01*
X114570287Y-71949571D01*
X115070287Y-71949571D02*
X116070287Y-73449571D01*
X116070287Y-71949571D02*
X115070287Y-73449571D01*
X116427429Y-71949571D02*
X117284572Y-71949571D01*
X116856001Y-73449571D02*
X116856001Y-71949571D01*
X117784572Y-72878143D02*
X118927429Y-72878143D01*
X119570286Y-73378143D02*
X119784572Y-73449571D01*
X120141715Y-73449571D01*
X120284572Y-73378143D01*
X120356001Y-73306714D01*
X120427429Y-73163857D01*
X120427429Y-73021000D01*
X120356001Y-72878143D01*
X120284572Y-72806714D01*
X120141715Y-72735286D01*
X119856001Y-72663857D01*
X119713143Y-72592429D01*
X119641715Y-72521000D01*
X119570286Y-72378143D01*
X119570286Y-72235286D01*
X119641715Y-72092429D01*
X119713143Y-72021000D01*
X119856001Y-71949571D01*
X120213143Y-71949571D01*
X120427429Y-72021000D01*
X121070286Y-73449571D02*
X121070286Y-71949571D01*
X121427429Y-71949571D01*
X121641714Y-72021000D01*
X121784572Y-72163857D01*
X121856000Y-72306714D01*
X121927429Y-72592429D01*
X121927429Y-72806714D01*
X121856000Y-73092429D01*
X121784572Y-73235286D01*
X121641714Y-73378143D01*
X121427429Y-73449571D01*
X121070286Y-73449571D01*
D11*
X129540000Y-72644000D02*
X129540000Y-73660000D01*
X127000000Y-72644000D02*
X129540000Y-72644000D01*
X127000000Y-73660000D02*
X127000000Y-72644000D01*
D13*
X137906000Y-93792000D02*
X137906000Y-91823500D01*
X137906000Y-91823500D02*
X136826500Y-91823500D01*
X136826500Y-91823500D02*
X136826500Y-93792000D01*
X136826500Y-93792000D02*
X137906000Y-93792000D01*
X135429500Y-91442500D02*
X135429500Y-88966000D01*
X135429500Y-88966000D02*
X134350000Y-88966000D01*
X134350000Y-88966000D02*
X134350000Y-91442500D01*
X134350000Y-91442500D02*
X135429500Y-91442500D01*
X130794000Y-91887000D02*
X130794000Y-89474000D01*
X130794000Y-89474000D02*
X128952500Y-89474000D01*
X128952500Y-89474000D02*
X128952500Y-91887000D01*
X128952500Y-91887000D02*
X130794000Y-91887000D01*
X132953000Y-91506000D02*
X132953000Y-89537500D01*
X132953000Y-89537500D02*
X131873500Y-89537500D01*
X131873500Y-89537500D02*
X131873500Y-91506000D01*
X131873500Y-91506000D02*
X132953000Y-91506000D01*
X127936500Y-91887000D02*
X127936500Y-89918500D01*
X127936500Y-89918500D02*
X126857000Y-89918500D01*
X126857000Y-89918500D02*
X126857000Y-91887000D01*
X126857000Y-91887000D02*
X127936500Y-91887000D01*
X125460000Y-91506000D02*
X125460000Y-89537500D01*
X125460000Y-89537500D02*
X124317000Y-89537500D01*
X124317000Y-89537500D02*
X124317000Y-91506000D01*
X124317000Y-91506000D02*
X125460000Y-91506000D01*
X122920000Y-91506000D02*
X122920000Y-89537500D01*
X122920000Y-89537500D02*
X121840500Y-89537500D01*
X121840500Y-89537500D02*
X121840500Y-91506000D01*
X121840500Y-91506000D02*
X122920000Y-91506000D01*
X120507000Y-91506000D02*
X120507000Y-89537500D01*
X120507000Y-89537500D02*
X119427500Y-89537500D01*
X119427500Y-89537500D02*
X119427500Y-91506000D01*
X119427500Y-91506000D02*
X120507000Y-91506000D01*
X118792500Y-91506000D02*
X118792500Y-89537500D01*
X118792500Y-89537500D02*
X117713000Y-89537500D01*
X117713000Y-89537500D02*
X117713000Y-91506000D01*
X117713000Y-91506000D02*
X118792500Y-91506000D01*
X113331500Y-101920000D02*
X114728500Y-101920000D01*
X114728500Y-101920000D02*
X114728500Y-95633500D01*
X114728500Y-95633500D02*
X113331500Y-95633500D01*
X113331500Y-95633500D02*
X113331500Y-101856500D01*
X138795000Y-112080000D02*
G75*
G03X128000000Y-101285000I-10795000J0D01*
G01*
X128000000Y-101285000D02*
G75*
G03X117205000Y-112080000I0J-10795000D01*
G01*
X142922500Y-107000000D02*
X142922500Y-83314500D01*
X142922500Y-83314500D02*
X114030000Y-83314500D01*
X114030000Y-83314500D02*
X114030000Y-112270500D01*
X114030000Y-112270500D02*
X142922500Y-112270500D01*
X142922500Y-112270500D02*
X142922500Y-107000000D01*
X130810000Y-73660000D02*
X123190000Y-73660000D01*
X123190000Y-73660000D02*
X123190000Y-78740000D01*
X123190000Y-78740000D02*
X133350000Y-78740000D01*
X133350000Y-78740000D02*
X133350000Y-76200000D01*
X133630000Y-74930000D02*
X133630000Y-73380000D01*
X133350000Y-76200000D02*
X130810000Y-76200000D01*
X130810000Y-76200000D02*
X130810000Y-73660000D01*
X133630000Y-73380000D02*
X132080000Y-73380000D01*
X148286000Y-108000000D02*
G75*
G03X148286000Y-108000000I-2286000J0D01*
G01*
X113286000Y-108000000D02*
G75*
G03X113286000Y-108000000I-2286000J0D01*
G01*
X148286000Y-75000000D02*
G75*
G03X148286000Y-75000000I-2286000J0D01*
G01*
X113286000Y-75000000D02*
G75*
G03X113286000Y-75000000I-2286000J0D01*
G01*
X129684780Y-98320860D02*
X130045460Y-99791520D01*
X130045460Y-99791520D02*
X130324860Y-98729800D01*
X130324860Y-98729800D02*
X130634740Y-99801680D01*
X130634740Y-99801680D02*
X130975100Y-98351340D01*
X128264920Y-99011740D02*
X129054860Y-99001580D01*
X129054860Y-99001580D02*
X129065020Y-99011740D01*
X129065020Y-99011740D02*
X129065020Y-99001580D01*
X129105660Y-98290380D02*
X129105660Y-99832160D01*
X128216660Y-98280220D02*
X128216660Y-99849940D01*
X128216660Y-99849940D02*
X128226820Y-99839780D01*
X127665480Y-98381820D02*
X127314960Y-98300540D01*
X127314960Y-98300540D02*
X126994920Y-98290380D01*
X126994920Y-98290380D02*
X126756160Y-98491040D01*
X126756160Y-98491040D02*
X126725680Y-98760280D01*
X126725680Y-98760280D02*
X126966980Y-99001580D01*
X126966980Y-99001580D02*
X127355600Y-99131120D01*
X127355600Y-99131120D02*
X127535940Y-99291140D01*
X127535940Y-99291140D02*
X127576580Y-99590860D01*
X127576580Y-99590860D02*
X127345440Y-99811840D01*
X127345440Y-99811840D02*
X127025400Y-99839780D01*
X127025400Y-99839780D02*
X126674880Y-99730560D01*
X125636020Y-98280220D02*
X125387100Y-98300540D01*
X125387100Y-98300540D02*
X125145800Y-98541840D01*
X125145800Y-98541840D02*
X125056900Y-99032060D01*
X125056900Y-99032060D02*
X125084840Y-99380040D01*
X125084840Y-99380040D02*
X125285500Y-99700080D01*
X125285500Y-99700080D02*
X125536960Y-99822000D01*
X125536960Y-99822000D02*
X125846840Y-99750880D01*
X125846840Y-99750880D02*
X126065280Y-99570540D01*
X126065280Y-99570540D02*
X126136400Y-99110800D01*
X126136400Y-99110800D02*
X126085600Y-98701860D01*
X126085600Y-98701860D02*
X125976380Y-98419920D01*
X125976380Y-98419920D02*
X125615700Y-98290380D01*
X126235460Y-96560640D02*
X125976380Y-97121980D01*
X125976380Y-97121980D02*
X126514860Y-97640140D01*
X126514860Y-97640140D02*
X127035560Y-97370900D01*
X127035560Y-97370900D02*
X127314960Y-97530920D01*
X128755140Y-97510600D02*
X129085340Y-97320100D01*
X129085340Y-97320100D02*
X129524760Y-97650300D01*
X129524760Y-97650300D02*
X129997200Y-97160080D01*
X129997200Y-97160080D02*
X129715260Y-96680020D01*
X129715260Y-96680020D02*
X129905760Y-96210120D01*
X129905760Y-96210120D02*
X130515360Y-96022160D01*
X130515360Y-96022160D02*
X130515360Y-95341440D01*
X130515360Y-95341440D02*
X129956560Y-95201740D01*
X129956560Y-95201740D02*
X129755900Y-94630240D01*
X129755900Y-94630240D02*
X130025140Y-94160340D01*
X130025140Y-94160340D02*
X129555240Y-93649800D01*
X129555240Y-93649800D02*
X129037080Y-93911420D01*
X129037080Y-93911420D02*
X128567180Y-93710760D01*
X128567180Y-93710760D02*
X128397000Y-93169740D01*
X128397000Y-93169740D02*
X127706120Y-93151960D01*
X127706120Y-93151960D02*
X127495300Y-93700600D01*
X127495300Y-93700600D02*
X127076200Y-93870780D01*
X127076200Y-93870780D02*
X126525020Y-93601540D01*
X126525020Y-93601540D02*
X126006860Y-94129860D01*
X126006860Y-94129860D02*
X126255780Y-94670880D01*
X126255780Y-94670880D02*
X126085600Y-95150940D01*
X126085600Y-95150940D02*
X125536960Y-95250000D01*
X125536960Y-95250000D02*
X125526800Y-95951040D01*
X125526800Y-95951040D02*
X126085600Y-96151700D01*
X126085600Y-96151700D02*
X126225300Y-96550480D01*
X128366520Y-96530160D02*
X128666240Y-96380300D01*
X128666240Y-96380300D02*
X128866900Y-96182180D01*
X128866900Y-96182180D02*
X129016760Y-95780860D01*
X129016760Y-95780860D02*
X129016760Y-95382080D01*
X129016760Y-95382080D02*
X128866900Y-95031560D01*
X128866900Y-95031560D02*
X128414780Y-94681040D01*
X128414780Y-94681040D02*
X127965200Y-94630240D01*
X127965200Y-94630240D02*
X127566420Y-94731840D01*
X127566420Y-94731840D02*
X127165100Y-95079820D01*
X127165100Y-95079820D02*
X127015240Y-95531940D01*
X127015240Y-95531940D02*
X127066040Y-96029780D01*
X127066040Y-96029780D02*
X127314960Y-96332040D01*
X127314960Y-96332040D02*
X127665480Y-96530160D01*
X127665480Y-96530160D02*
X127314960Y-97530920D01*
X128366520Y-96530160D02*
X128765300Y-97530920D01*
X123075819Y-115571543D02*
X123123438Y-115619162D01*
X123075819Y-115666781D01*
X123028200Y-115619162D01*
X123075819Y-115571543D01*
X123075819Y-115666781D01*
X122885343Y-114714400D02*
X122980581Y-114666781D01*
X123218677Y-114666781D01*
X123313915Y-114714400D01*
X123361534Y-114809638D01*
X123361534Y-114904876D01*
X123313915Y-115000114D01*
X123266296Y-115047733D01*
X123171057Y-115095352D01*
X123123438Y-115142971D01*
X123075819Y-115238210D01*
X123075819Y-115285829D01*
X123932962Y-115571543D02*
X123980581Y-115619162D01*
X123932962Y-115666781D01*
X123885343Y-115619162D01*
X123932962Y-115571543D01*
X123932962Y-115666781D01*
X123742486Y-114714400D02*
X123837724Y-114666781D01*
X124075820Y-114666781D01*
X124171058Y-114714400D01*
X124218677Y-114809638D01*
X124218677Y-114904876D01*
X124171058Y-115000114D01*
X124123439Y-115047733D01*
X124028200Y-115095352D01*
X123980581Y-115142971D01*
X123932962Y-115238210D01*
X123932962Y-115285829D01*
X125171058Y-115666781D02*
X124599629Y-115666781D01*
X124885343Y-115666781D02*
X124885343Y-114666781D01*
X124790105Y-114809638D01*
X124694867Y-114904876D01*
X124599629Y-114952495D01*
X128079762Y-111214762D02*
X128222619Y-111262381D01*
X128460715Y-111262381D01*
X128555953Y-111214762D01*
X128603572Y-111167143D01*
X128651191Y-111071905D01*
X128651191Y-110976667D01*
X128603572Y-110881429D01*
X128555953Y-110833810D01*
X128460715Y-110786190D01*
X128270238Y-110738571D01*
X128175000Y-110690952D01*
X128127381Y-110643333D01*
X128079762Y-110548095D01*
X128079762Y-110452857D01*
X128127381Y-110357619D01*
X128175000Y-110310000D01*
X128270238Y-110262381D01*
X128508334Y-110262381D01*
X128651191Y-110310000D01*
X129079762Y-111262381D02*
X129079762Y-110262381D01*
X129317857Y-110262381D01*
X129460715Y-110310000D01*
X129555953Y-110405238D01*
X129603572Y-110500476D01*
X129651191Y-110690952D01*
X129651191Y-110833810D01*
X129603572Y-111024286D01*
X129555953Y-111119524D01*
X129460715Y-111214762D01*
X129317857Y-111262381D01*
X129079762Y-111262381D01*
X129841667Y-111357619D02*
X130603572Y-111357619D01*
X131413096Y-111167143D02*
X131365477Y-111214762D01*
X131222620Y-111262381D01*
X131127382Y-111262381D01*
X130984524Y-111214762D01*
X130889286Y-111119524D01*
X130841667Y-111024286D01*
X130794048Y-110833810D01*
X130794048Y-110690952D01*
X130841667Y-110500476D01*
X130889286Y-110405238D01*
X130984524Y-110310000D01*
X131127382Y-110262381D01*
X131222620Y-110262381D01*
X131365477Y-110310000D01*
X131413096Y-110357619D01*
X131794048Y-110976667D02*
X132270239Y-110976667D01*
X131698810Y-111262381D02*
X132032143Y-110262381D01*
X132365477Y-111262381D01*
X133270239Y-111262381D02*
X132936905Y-110786190D01*
X132698810Y-111262381D02*
X132698810Y-110262381D01*
X133079763Y-110262381D01*
X133175001Y-110310000D01*
X133222620Y-110357619D01*
X133270239Y-110452857D01*
X133270239Y-110595714D01*
X133222620Y-110690952D01*
X133175001Y-110738571D01*
X133079763Y-110786190D01*
X132698810Y-110786190D01*
X133698810Y-111262381D02*
X133698810Y-110262381D01*
X133936905Y-110262381D01*
X134079763Y-110310000D01*
X134175001Y-110405238D01*
X134222620Y-110500476D01*
X134270239Y-110690952D01*
X134270239Y-110833810D01*
X134222620Y-111024286D01*
X134175001Y-111119524D01*
X134079763Y-111214762D01*
X133936905Y-111262381D01*
X133698810Y-111262381D01*
%LPC*%
D14*
X140065000Y-107000000D03*
X115935000Y-107000000D03*
D15*
X142400000Y-103700000D03*
X114400000Y-104900000D03*
D16*
X134875000Y-82700000D03*
X132375000Y-82700000D03*
X129075000Y-82700000D03*
X127375000Y-82700000D03*
X124875000Y-82700000D03*
X122375000Y-82700000D03*
X119950000Y-82700000D03*
X118250000Y-82700000D03*
X137375000Y-82700000D03*
X130725000Y-82700000D03*
X114900000Y-82700000D03*
D17*
X132080000Y-74930000D03*
D18*
X132080000Y-77470000D03*
X129540000Y-74930000D03*
X129540000Y-77470000D03*
X127000000Y-74930000D03*
X127000000Y-77470000D03*
X124460000Y-74930000D03*
X124460000Y-77470000D03*
D19*
X146000000Y-108000000D03*
X111000000Y-108000000D03*
X146000000Y-75000000D03*
X111000000Y-75000000D03*
M02*
